<svg width="28" height="22" viewBox="0 0 28 22" fill="none" xmlns="http://www.w3.org/2000/svg">
<path fill-rule="evenodd" clip-rule="evenodd" d="M11.8477 6.14239C11.5387 5.95703 11.154 5.95217 10.8405 6.12968C10.527 6.30718 10.3332 6.63961 10.3332 6.99988V14.9999C10.3332 15.3602 10.527 15.6926 10.8405 15.8701C11.154 16.0476 11.5387 16.0427 11.8477 15.8574L18.5143 11.8574C18.8155 11.6766 18.9998 11.3511 18.9998 10.9999C18.9998 10.6486 18.8155 10.3231 18.5143 10.1424L11.8477 6.14239ZM16.0562 10.9999L12.3332 13.2337V8.76607L16.0562 10.9999Z" fill="white"/>
<path fill-rule="evenodd" clip-rule="evenodd" d="M20.7074 1.18825C16.2425 0.838942 11.7572 0.838942 7.29235 1.18825L4.30475 1.42199C2.48799 1.56412 1.00174 2.92573 0.701429 4.72312C0.00707594 8.87882 0.00707594 13.1209 0.701428 17.2766C1.00174 19.074 2.48799 20.4356 4.30475 20.5778L7.29235 20.8115C11.7572 21.1608 16.2425 21.1608 20.7074 20.8115L23.695 20.5778C25.5118 20.4356 26.998 19.074 27.2983 17.2766C27.9927 13.1209 27.9927 8.87882 27.2983 4.72312C26.998 2.92573 25.5118 1.56412 23.695 1.42199L20.7074 1.18825ZM7.44834 3.18216C11.8094 2.84097 16.1904 2.84097 20.5514 3.18216L23.539 3.4159C24.4398 3.48637 25.1768 4.16151 25.3257 5.05272C25.9836 8.9902 25.9836 13.0096 25.3257 16.947C25.1768 17.8382 24.4398 18.5134 23.539 18.5839L20.5514 18.8176C16.1904 19.1588 11.8094 19.1588 7.44834 18.8176L4.46074 18.5839C3.55993 18.5134 2.82299 17.8382 2.67408 16.947C2.01619 13.0096 2.01619 8.9902 2.67408 5.05272C2.82299 4.1615 3.55993 3.48637 4.46074 3.4159L7.44834 3.18216Z" fill="white"/>
</svg>
