<svg width="24" height="19" viewBox="0 0 24 19" fill="none" xmlns="http://www.w3.org/2000/svg">
<path d="M21.8893 1.90534C23.2627 3.364 24 5 24 7.652C24 12.3187 20.724 16.5013 15.96 18.5693L14.7693 16.732C19.216 14.3267 20.0853 11.2053 20.432 9.23734C19.716 9.608 18.7787 9.73734 17.86 9.652C15.4547 9.42934 13.5587 7.45467 13.5587 5C13.5587 3.76233 14.0503 2.57534 14.9255 1.70017C15.8007 0.825 16.9877 0.333336 18.2253 0.333336C18.9098 0.339318 19.5862 0.481383 20.2152 0.751261C20.8443 1.02114 21.4133 1.41344 21.8893 1.90534ZM8.556 1.90534C9.92933 3.364 10.6667 5 10.6667 7.652C10.6667 12.3187 7.39066 16.5013 2.62667 18.5693L1.436 16.732C5.88267 14.3267 6.752 11.2053 7.09867 9.23734C6.38267 9.608 5.44533 9.73734 4.52667 9.652C2.12133 9.42934 0.225333 7.45467 0.225333 5C0.225333 3.76233 0.716996 2.57534 1.59217 1.70017C2.46734 0.825001 3.65432 0.333338 4.892 0.333338C5.57645 0.339319 6.25288 0.481384 6.88192 0.751262C7.51095 1.02114 8.08002 1.41345 8.556 1.90534Z" fill="white"/>
</svg>
