<?xml version="1.0" standalone="no"?>
<!DOCTYPE svg PUBLIC "-//W3C//DTD SVG 20010904//EN"
 "http://www.w3.org/TR/2001/REC-SVG-20010904/DTD/svg10.dtd">
<svg version="1.0" xmlns="http://www.w3.org/2000/svg"
 width="1152.000000pt" height="1152.000000pt" viewBox="0 0 1152.000000 1152.000000"
 preserveAspectRatio="xMidYMid meet">
<metadata>
Created by potrace 1.14, written by Peter Selinger 2001-2017
</metadata>
<g transform="translate(0.000000,1152.000000) scale(0.100000,-0.100000)"
fill="#000000" stroke="none">
<path d="M6209 9635 c-2 -2 -40 -6 -84 -9 -77 -6 -117 -11 -161 -21 -12 -3
-39 -7 -60 -11 -33 -5 -107 -21 -174 -39 -89 -23 -415 -139 -510 -182 -53 -23
-73 -28 -105 -22 -271 47 -646 41 -885 -13 -25 -5 -56 -12 -70 -14 -41 -8
-129 -34 -225 -67 -128 -43 -414 -184 -423 -209 -2 -4 -8 -8 -14 -8 -8 0 -93
-55 -108 -70 -3 -3 -23 -18 -45 -35 -114 -84 -306 -279 -403 -410 -153 -207
-279 -456 -353 -698 -37 -117 -30 -111 -124 -122 -27 -3 -70 -10 -95 -14 -25
-5 -48 -7 -52 -5 -5 3 -8 2 -8 -3 0 -4 -10 -8 -22 -9 -13 0 -36 -3 -53 -7 -16
-3 -52 -10 -80 -16 -27 -5 -61 -12 -75 -15 -14 -3 -38 -9 -55 -13 -16 -3 -37
-7 -45 -8 -8 -1 -53 -12 -100 -25 -47 -12 -92 -23 -100 -25 -32 -6 -325 -107
-351 -120 -14 -8 -29 -11 -33 -8 -3 4 -6 1 -6 -5 0 -7 -4 -12 -10 -12 -19 0
-296 -142 -325 -167 -5 -5 -28 -20 -50 -33 -22 -13 -42 -28 -43 -32 -2 -4 -8
-8 -13 -8 -9 0 -15 -4 -52 -35 -7 -6 -28 -22 -47 -35 -86 -60 -310 -270 -363
-341 -10 -13 -44 -60 -77 -104 -157 -209 -278 -466 -344 -730 -10 -38 -20 -77
-23 -85 -3 -8 -7 -31 -9 -50 -1 -19 -6 -46 -9 -60 -27 -114 -27 -529 -1 -680
3 -14 7 -41 10 -60 10 -61 17 -93 33 -155 8 -33 16 -67 18 -75 2 -8 8 -26 13
-40 5 -14 10 -29 10 -33 0 -28 88 -236 145 -347 33 -63 65 -125 71 -137 6 -13
14 -23 19 -23 4 0 7 -5 7 -10 0 -22 162 -247 255 -356 59 -68 308 -319 329
-331 8 -4 37 -29 66 -56 28 -26 53 -47 56 -47 3 0 26 -18 52 -39 26 -21 83
-64 127 -95 44 -31 85 -60 92 -66 6 -5 56 -38 110 -72 128 -81 128 -81 193
-119 98 -57 123 -71 230 -127 58 -30 114 -59 125 -65 11 -6 22 -12 25 -12 3
-1 41 -18 85 -39 135 -65 254 -116 400 -172 77 -30 148 -59 157 -64 10 -6 22
-10 27 -10 5 0 20 -4 33 -9 13 -5 25 -8 28 -8 3 0 15 -5 28 -12 13 -7 31 -14
40 -16 9 -2 35 -10 57 -18 22 -8 49 -18 60 -23 11 -4 25 -8 31 -9 7 -2 38 -12
70 -23 33 -11 93 -29 134 -41 41 -13 86 -26 100 -31 14 -6 52 -17 85 -26 33
-9 76 -20 95 -25 19 -5 46 -12 60 -15 14 -3 34 -8 45 -11 11 -4 25 -8 30 -9 6
-1 30 -7 55 -14 25 -7 52 -13 60 -15 8 -2 33 -8 55 -14 22 -6 58 -13 80 -17
22 -3 46 -11 53 -16 6 -6 12 -8 12 -5 0 4 16 1 105 -19 11 -3 33 -7 49 -9 15
-2 35 -7 45 -9 9 -3 32 -8 51 -11 19 -3 67 -12 105 -20 39 -8 84 -16 100 -19
17 -3 39 -7 50 -9 11 -2 41 -7 66 -11 25 -4 59 -9 75 -12 76 -13 143 -23 179
-29 22 -3 51 -8 65 -10 14 -2 48 -7 75 -10 28 -3 64 -7 80 -10 34 -5 118 -16
155 -20 14 -1 52 -5 85 -9 67 -8 117 -12 220 -21 39 -3 90 -8 115 -10 54 -5
197 -15 300 -21 41 -2 241 -7 443 -11 346 -5 369 -5 381 12 9 13 15 15 20 6 5
-8 22 -3 59 16 29 16 54 31 55 36 2 4 8 7 14 7 5 0 22 8 36 18 15 11 72 43
127 72 55 30 118 64 140 76 22 12 65 35 95 51 30 15 57 31 58 36 2 4 12 7 23
7 10 0 19 4 19 8 0 4 12 13 28 19 15 6 65 32 112 58 47 25 136 73 198 106 63
33 128 68 146 78 17 10 67 37 111 61 101 54 329 181 375 209 19 11 42 24 50
28 8 4 63 35 122 70 59 35 109 63 113 63 3 0 11 5 18 10 7 6 80 52 162 102
136 83 344 215 371 235 5 4 18 13 27 18 95 56 556 390 570 412 4 7 14 13 22
13 7 0 15 4 17 9 2 4 39 37 83 72 44 35 94 76 110 91 17 14 41 36 55 48 14 12
47 40 74 63 77 67 406 395 482 481 38 43 74 84 79 90 6 6 32 38 58 71 26 33
55 69 64 79 8 11 42 56 74 100 32 45 62 86 67 91 45 55 207 324 280 467 76
150 190 423 207 498 2 8 13 43 24 76 12 34 23 73 25 85 3 13 5 24 6 24 2 0 5
12 30 120 15 65 29 140 35 185 3 26 17 114 22 135 17 89 25 564 11 670 -14
104 -51 271 -68 310 -5 11 -14 38 -21 60 -14 49 -51 141 -87 215 -36 76 -142
254 -153 258 -5 2 -9 8 -9 14 0 29 -204 256 -320 356 -19 17 -51 44 -70 61
-19 17 -40 31 -47 31 -6 0 -13 4 -15 8 -1 5 -41 37 -88 71 -47 33 -91 66 -97
71 -7 6 -13 8 -13 5 0 -3 -9 4 -20 15 -11 11 -27 20 -35 20 -8 0 -15 3 -15 8
0 4 -10 12 -23 18 -12 6 -60 31 -107 55 -156 83 -452 195 -525 200 -3 0 -26 6
-52 14 -27 8 -59 16 -73 19 -14 3 -72 17 -130 30 -58 13 -112 23 -120 23 -8 0
-35 4 -60 8 -25 4 -61 9 -80 11 -49 5 -387 5 -430 0 -19 -2 -64 -7 -100 -10
-36 -3 -74 -8 -85 -10 -11 -2 -42 -7 -69 -10 -27 -4 -52 -9 -56 -11 -3 -2 -26
-6 -50 -10 -25 -3 -72 -13 -105 -22 -33 -8 -68 -17 -78 -18 -23 -5 -147 -40
-209 -59 -53 -17 -48 -19 -108 55 -53 67 -199 209 -266 258 -32 25 -76 57 -96
73 -20 15 -40 28 -43 28 -4 0 -19 8 -33 19 -78 55 -361 180 -447 197 -11 2
-31 8 -45 14 -14 5 -36 12 -50 14 -14 3 -25 5 -25 6 0 1 -7 3 -15 5 -8 1 -40
8 -70 14 -126 26 -147 30 -210 37 -30 3 -64 8 -75 11 -23 6 -401 13 -406 8z
m386 -288 c76 -9 130 -19 220 -38 50 -11 97 -21 105 -22 68 -14 248 -75 277
-94 13 -9 23 -12 23 -9 0 15 250 -127 258 -146 2 -5 8 -8 14 -8 10 0 72 -49
147 -115 41 -37 46 -41 94 -94 l38 -41 -46 -20 c-26 -11 -48 -20 -50 -20 -1 0
-24 -10 -51 -22 -27 -12 -51 -23 -54 -23 -11 -3 -185 -85 -330 -156 -152 -75
-156 -76 -182 -61 -16 9 -28 20 -28 24 0 4 -7 8 -15 8 -8 0 -15 5 -15 10 0 6
-6 10 -13 10 -7 0 -23 9 -35 20 -12 11 -24 20 -26 20 -3 0 -35 20 -72 45 -36
25 -69 45 -74 45 -4 0 -10 3 -12 8 -1 4 -41 33 -88 63 -47 31 -113 75 -148 97
-35 23 -67 42 -71 42 -5 0 -14 7 -21 15 -7 9 -15 13 -18 11 -3 -3 -17 3 -31
13 -36 25 -240 123 -336 161 -127 50 -215 83 -345 129 -47 16 -82 30 -77 30 4
1 9 0 10 -1 2 -2 10 2 18 8 11 9 110 42 134 45 2 0 28 7 57 15 29 8 67 17 83
19 17 2 55 9 85 15 30 6 87 13 125 17 39 3 71 7 73 8 4 4 335 -3 377 -8z
m-1842 -246 c5 -1 -22 -24 -60 -53 -37 -29 -73 -57 -80 -63 -6 -5 -35 -30 -64
-55 -109 -93 -322 -313 -416 -430 -15 -19 -30 -37 -33 -40 -3 -3 -19 -23 -36
-45 -16 -22 -38 -50 -49 -63 -47 -55 -248 -343 -339 -486 l-98 -156 -107 5
c-98 5 -172 8 -401 20 -47 2 -113 4 -148 4 l-64 1 7 30 c15 68 161 391 185
410 4 3 9 12 12 20 11 26 131 195 183 255 92 107 190 199 302 282 78 57 232
153 247 153 5 0 17 6 25 14 22 19 234 101 312 122 35 9 71 19 79 22 8 2 22 6
30 7 8 1 29 5 45 8 17 4 47 10 69 13 21 3 48 7 59 10 11 2 68 6 126 10 58 3
107 7 108 8 2 1 89 -1 106 -3z m557 -76 c36 -9 81 -21 100 -27 19 -6 40 -12
45 -13 6 -1 15 -4 20 -5 53 -14 403 -139 509 -183 140 -57 413 -207 511 -279
6 -5 136 -91 290 -193 189 -126 284 -183 295 -179 8 4 17 8 20 9 3 0 52 25
110 55 206 105 359 179 501 240 41 17 88 38 106 46 17 8 33 14 36 14 3 0 18 5
34 12 45 18 58 18 69 0 18 -28 96 -174 120 -223 59 -121 171 -409 164 -421 -1
-2 5 -21 14 -43 18 -47 54 -189 71 -280 2 -11 6 -29 8 -40 3 -11 8 -42 11 -70
4 -27 10 -63 12 -80 33 -195 38 -702 9 -877 -2 -13 -6 -47 -9 -77 -4 -30 -11
-84 -17 -120 -6 -36 -12 -75 -14 -86 -4 -29 -14 -80 -32 -165 -8 -41 -17 -88
-20 -105 -3 -16 -9 -38 -14 -47 -5 -10 -8 -18 -5 -18 3 0 0 -15 -5 -32 -9 -31
-12 -41 -24 -93 -5 -25 -28 -104 -48 -167 -8 -27 -13 -48 -11 -48 3 0 0 -9 -6
-21 -6 -11 -13 -28 -15 -37 -2 -9 -13 -44 -25 -77 -11 -33 -22 -64 -24 -70 -2
-5 -6 -17 -9 -25 -3 -8 -15 -44 -27 -80 -11 -36 -24 -74 -30 -85 -5 -11 -23
-58 -41 -105 -17 -47 -40 -103 -49 -125 -10 -22 -34 -78 -53 -125 -19 -47 -50
-116 -68 -155 -18 -38 -33 -75 -34 -81 -5 -23 -255 -522 -340 -679 -48 -88
-108 -198 -133 -245 -25 -47 -48 -87 -51 -90 -3 -3 -13 -18 -21 -35 -8 -16
-68 -122 -134 -235 -65 -113 -124 -214 -130 -225 -48 -85 -162 -271 -171 -277
-5 -4 -7 -8 -2 -8 4 0 -8 -24 -27 -52 -18 -29 -68 -111 -109 -183 -42 -71 -80
-135 -85 -141 -5 -6 -13 -20 -16 -31 -14 -43 -30 -45 -84 -11 -196 126 -267
174 -270 180 -2 5 -7 8 -12 8 -8 0 -210 135 -235 157 -5 5 -32 24 -60 43 -27
19 -51 37 -53 42 -2 4 -10 8 -18 8 -8 0 -14 4 -14 8 0 4 -14 16 -31 26 -18 10
-39 26 -48 35 -10 9 -33 27 -53 41 -19 14 -50 37 -69 52 -19 14 -90 70 -159
124 -69 54 -127 100 -130 103 -3 4 -30 26 -60 51 -30 25 -60 49 -66 55 -6 5
-35 30 -64 55 -111 93 -277 242 -418 375 -174 165 -452 448 -559 571 -28 32
-62 71 -75 85 -12 14 -43 49 -68 79 -25 29 -50 58 -55 64 -26 27 -180 222
-258 326 -47 63 -93 123 -101 133 -9 9 -16 20 -16 24 0 3 -27 43 -60 89 -33
45 -60 85 -60 89 0 3 -5 11 -11 18 -5 7 -31 46 -57 87 -26 42 -53 84 -59 95
-115 185 -258 466 -340 670 -67 165 -141 388 -157 470 -1 6 -6 20 -10 32 -4
12 -9 37 -11 55 -3 18 -9 56 -15 83 -15 68 -25 140 -39 283 -12 121 -5 367 14
477 2 11 4 23 4 28 1 7 297 2 466 -8 39 -2 129 -7 200 -10 72 -3 162 -8 202
-10 l72 -4 23 37 c13 20 28 44 33 53 68 112 88 145 94 149 8 6 26 36 46 76 9
17 25 41 36 53 11 11 17 21 14 21 -4 0 7 18 24 39 17 21 31 44 31 50 0 6 5 11
10 11 6 0 14 8 17 18 6 16 31 54 60 91 7 9 44 59 83 111 87 117 109 145 184
235 84 99 327 339 416 411 102 82 246 184 259 184 6 0 11 5 11 10 0 6 5 10 10
10 6 0 16 5 23 11 32 28 94 57 117 54 14 -2 54 -11 90 -20z m3945 -260 c102
-11 132 -15 160 -22 17 -4 38 -8 48 -9 9 -1 18 -2 20 -4 1 -1 11 -3 22 -5 11
-3 31 -6 45 -9 40 -8 293 -76 302 -82 4 -3 17 -7 27 -9 43 -8 232 -90 331
-143 92 -49 259 -155 305 -194 9 -7 21 -18 28 -23 7 -6 21 -17 33 -25 62 -43
171 -145 273 -255 33 -36 131 -174 131 -184 0 -6 4 -11 9 -11 24 0 193 -388
206 -475 2 -11 10 -51 18 -90 21 -98 30 -194 30 -310 0 -101 -10 -276 -19
-318 -2 -12 -6 -44 -9 -72 -6 -67 -13 -110 -35 -225 -6 -30 -14 -66 -16 -80
-8 -41 -54 -199 -81 -280 -81 -244 -224 -540 -371 -765 -66 -101 -263 -368
-292 -395 -3 -3 -34 -39 -70 -80 -111 -129 -345 -367 -438 -447 -19 -15 -53
-47 -78 -70 -24 -24 -46 -43 -49 -43 -3 0 -13 -8 -23 -18 -33 -33 -228 -190
-342 -276 -63 -47 -119 -89 -125 -94 -28 -22 -317 -222 -320 -222 -5 0 -97
-62 -105 -70 -20 -22 -671 -414 -750 -453 -14 -6 -27 -14 -30 -18 -3 -3 -18
-12 -35 -21 -16 -8 -73 -38 -125 -68 -52 -29 -120 -66 -150 -83 -30 -17 -69
-38 -85 -47 -17 -10 -64 -34 -105 -55 -41 -21 -87 -47 -102 -57 -16 -11 -28
-16 -28 -12 0 3 -6 2 -12 -3 -13 -10 -57 -35 -203 -113 -44 -23 -84 -47 -89
-51 -6 -5 -18 -9 -27 -9 -10 0 -19 -4 -21 -9 -3 -9 -103 -62 -114 -60 -4 0
-10 -3 -13 -8 -9 -13 -72 -46 -77 -40 -3 2 43 85 102 183 59 99 118 199 132
224 14 25 33 57 43 72 11 14 19 29 19 34 0 4 11 22 26 41 14 18 22 33 19 33
-4 0 3 12 14 26 12 15 21 33 21 40 0 8 4 14 8 14 4 0 19 22 33 50 13 27 27 50
32 50 4 0 7 4 7 9 0 9 90 172 100 181 3 3 14 23 25 45 11 22 22 42 25 45 3 3
11 16 18 30 7 14 23 43 35 65 65 114 191 353 303 575 91 182 204 417 204 427
0 3 14 35 31 71 17 37 40 90 51 117 11 28 26 65 34 83 42 95 89 221 154 407
23 66 45 127 48 135 3 8 6 18 7 23 2 4 4 9 5 12 1 3 3 8 4 13 2 4 9 27 16 52
7 25 14 47 15 50 4 19 37 128 42 140 3 8 7 22 8 30 1 8 15 62 30 120 15 58 29
114 31 125 2 11 7 34 10 50 4 17 8 39 10 50 2 11 5 31 8 45 22 99 25 117 31
160 3 19 7 46 10 60 3 14 8 45 11 70 5 45 11 85 14 85 0 0 3 25 4 55 2 30 7
100 12 155 15 181 9 559 -12 720 -2 17 -6 50 -8 75 -3 25 -10 70 -16 100 -6
30 -13 70 -16 89 -8 48 -12 70 -18 89 -3 9 -7 28 -10 42 -2 14 -9 45 -16 70
-7 25 -13 50 -15 55 -1 6 -5 17 -8 25 -4 8 -8 24 -10 35 -2 11 -7 27 -10 35
-3 8 -17 49 -30 90 -31 93 -53 152 -78 207 -10 24 -19 45 -19 49 0 12 -144
300 -162 324 -19 24 -19 24 4 33 34 13 209 58 241 62 15 2 31 6 35 9 4 2 26 7
48 10 22 4 50 8 63 11 13 2 49 7 80 11 31 3 65 8 76 11 11 2 67 6 125 9 58 3
106 7 107 8 4 3 204 -4 248 -9z m-6764 -1421 c-10 -174 -2 -459 13 -544 3 -14
7 -46 10 -72 3 -26 8 -58 11 -70 5 -24 12 -61 21 -113 17 -93 98 -366 152
-515 76 -206 241 -547 353 -733 16 -26 29 -52 29 -57 0 -6 5 -10 10 -10 6 0
10 -5 10 -10 0 -11 156 -256 177 -278 7 -7 13 -20 13 -28 0 -8 4 -14 9 -14 5
0 18 -16 30 -36 19 -32 217 -302 230 -314 3 -3 29 -34 56 -70 28 -36 57 -72
65 -81 8 -9 31 -36 50 -60 36 -45 162 -192 183 -214 7 -7 41 -45 77 -86 76
-86 535 -547 631 -634 190 -173 237 -215 269 -241 19 -16 37 -31 40 -34 3 -3
32 -28 65 -55 33 -28 62 -52 65 -55 3 -3 30 -25 60 -50 30 -25 60 -49 66 -55
36 -31 55 -45 64 -45 6 0 10 -3 10 -8 0 -4 42 -39 93 -77 50 -39 94 -72 97
-75 10 -11 121 -94 271 -203 100 -73 289 -202 452 -310 55 -36 56 -36 -98 -32
-190 6 -473 21 -565 30 -55 6 -193 18 -217 18 -13 1 -23 3 -23 7 0 3 -19 6
-43 6 -52 2 -164 14 -277 29 -25 4 -60 8 -77 11 -43 5 -92 13 -123 18 -14 3
-45 7 -70 10 -25 3 -56 8 -70 11 -32 7 -62 12 -125 21 -27 5 -52 9 -55 9 -32
7 -99 19 -112 21 -10 1 -19 2 -20 4 -2 1 -16 4 -33 6 -16 2 -50 9 -75 15 -25
6 -56 13 -70 15 -14 2 -34 5 -45 8 -11 2 -51 12 -90 20 -70 16 -222 51 -260
61 -11 3 -29 7 -40 10 -11 2 -69 18 -130 34 -60 17 -137 37 -170 46 -33 9 -67
19 -75 22 -8 3 -20 7 -26 8 -6 2 -78 24 -160 51 -82 26 -153 49 -159 50 -13 4
-124 43 -150 54 -36 14 -99 38 -170 65 -38 14 -81 31 -95 37 -14 6 -34 14 -45
19 -48 19 -186 80 -250 110 -38 18 -72 33 -75 34 -3 0 -16 7 -30 15 -14 8 -27
15 -30 15 -48 8 -576 315 -665 387 -5 4 -48 36 -95 69 -47 34 -99 74 -116 88
-17 14 -53 44 -80 66 -80 64 -344 334 -406 415 -106 139 -138 184 -138 196 0
7 -4 14 -8 16 -13 5 -76 114 -130 225 -44 89 -116 282 -138 368 -4 17 -8 32
-9 35 -1 6 -13 64 -20 100 -3 13 -7 41 -10 62 -3 20 -8 52 -11 70 -10 56 -12
400 -3 463 4 33 11 83 15 110 3 28 8 53 10 57 3 4 7 20 9 35 5 36 43 172 55
198 5 11 19 46 30 78 26 70 115 246 156 306 16 24 34 51 39 59 15 23 27 39 98
127 86 107 244 256 332 314 22 14 42 29 45 32 36 46 510 299 510 272 0 -3 6
-1 13 4 9 8 147 58 192 70 6 1 26 7 45 12 45 13 228 58 260 65 14 2 57 11 95
19 81 18 127 26 170 32 53 7 99 16 104 21 3 2 10 3 15 1 7 -3 9 -33 7 -83z"/>
<path d="M5993 7214 c-15 -8 -32 -24 -38 -37 -6 -14 -10 -205 -9 -509 0 -487
0 -488 -20 -489 -12 0 -200 -1 -419 -2 l-399 -2 -22 -27 c-20 -25 -22 -39 -21
-147 1 -133 11 -167 57 -179 15 -4 208 -7 428 -7 l400 1 1 -841 c0 -462 2
-850 3 -863 6 -55 50 -69 201 -66 105 2 110 3 132 29 l23 26 0 855 c0 676 3
854 13 855 6 1 192 2 412 3 366 1 403 3 428 19 31 20 29 15 32 88 1 31 5 61 9
67 4 7 3 12 -1 12 -10 0 -9 52 0 67 7 12 -27 88 -44 99 -8 5 -198 9 -424 10
-225 1 -413 2 -416 3 -3 0 -6 224 -6 497 l0 495 -26 27 c-26 26 -31 27 -146
28 -83 1 -128 -3 -148 -12z"/>
</g>
</svg>
